<svg width="33" height="33" viewBox="0 0 33 33" fill="none" xmlns="http://www.w3.org/2000/svg">
<path d="M25.6667 25.75C26.5507 25.75 27.3986 26.11 28.0237 26.7507C28.6488 27.3915 29 28.2605 29 29.1667C29 30.0728 28.6488 30.9419 28.0237 31.5826C27.3986 32.2234 26.5507 32.5833 25.6667 32.5833C24.7826 32.5833 23.9348 32.2234 23.3096 31.5826C22.6845 30.9419 22.3333 30.0728 22.3333 29.1667C22.3333 28.2605 22.6845 27.3915 23.3096 26.7507C23.9348 26.11 24.7826 25.75 25.6667 25.75ZM25.6667 27.4583C25.2246 27.4583 24.8007 27.6383 24.4882 27.9587C24.1756 28.2791 24 28.7136 24 29.1667C24 29.6197 24.1756 30.0543 24.4882 30.3746C24.8007 30.695 25.2246 30.875 25.6667 30.875C26.1087 30.875 26.5326 30.695 26.8452 30.3746C27.1577 30.0543 27.3333 29.6197 27.3333 29.1667C27.3333 28.7136 27.1577 28.2791 26.8452 27.9587C26.5326 27.6383 26.1087 27.4583 25.6667 27.4583ZM10.6667 25.75C11.5507 25.75 12.3986 26.11 13.0237 26.7507C13.6488 27.3915 14 28.2605 14 29.1667C14 30.0728 13.6488 30.9419 13.0237 31.5826C12.3986 32.2234 11.5507 32.5833 10.6667 32.5833C9.78261 32.5833 8.93476 32.2234 8.30964 31.5826C7.68452 30.9419 7.33333 30.0728 7.33333 29.1667C7.33333 28.2605 7.68452 27.3915 8.30964 26.7507C8.93476 26.11 9.78261 25.75 10.6667 25.75ZM10.6667 27.4583C10.2246 27.4583 9.80072 27.6383 9.48815 27.9587C9.17559 28.2791 9 28.7136 9 29.1667C9 29.6197 9.17559 30.0543 9.48815 30.3746C9.80072 30.695 10.2246 30.875 10.6667 30.875C11.1087 30.875 11.5326 30.695 11.8452 30.3746C12.1577 30.0543 12.3333 29.6197 12.3333 29.1667C12.3333 28.7136 12.1577 28.2791 11.8452 27.9587C11.5326 27.6383 11.1087 27.4583 10.6667 27.4583ZM29 5.25H6.11667L10.3667 15.5H24C24.55 15.5 25.0333 15.2267 25.3333 14.8167L30.3333 7.98333C30.55 7.69292 30.6667 7.33417 30.6667 6.95833C30.6667 6.50525 30.4911 6.07073 30.1785 5.75036C29.866 5.42998 29.442 5.25 29 5.25ZM24 17.2083H10.45L9.16667 19.8733L9 20.625C9 21.0781 9.17559 21.5126 9.48815 21.833C9.80072 22.1533 10.2246 22.3333 10.6667 22.3333H29V24.0417H10.6667C9.78261 24.0417 8.93476 23.6817 8.30964 23.0409C7.68452 22.4002 7.33333 21.5312 7.33333 20.625C7.33284 20.0454 7.47622 19.4751 7.75 18.9679L8.95 16.4567L2.9 1.83333H0.666666V0.125H4L5.41667 3.54167H29C29.8841 3.54167 30.7319 3.90164 31.357 4.54238C31.9821 5.18313 32.3333 6.05218 32.3333 6.95833C32.3333 7.8125 32.05 8.53 31.5833 9.11083L26.7333 15.7562C26.1333 16.6275 25.1333 17.2083 24 17.2083Z" fill="#DA8D19"/>
</svg>
