<svg width="355" height="419" viewBox="0 0 355 419" fill="none" xmlns="http://www.w3.org/2000/svg">
<path d="M62.6392 310.532C35.1253 314.765 12.3734 326.405 4.4367 331.696C-3.50001 331.696 4.4367 342.278 7.08227 342.278C9.19872 342.278 55.5844 335.224 78.5126 331.696C84.6856 322.878 90.1531 306.299 62.6392 310.532Z" fill="#E5E5E5"/>
<path d="M176.399 331.696C167.933 335.929 127.015 329.932 107.614 326.405C118.196 316.705 140.419 297.304 144.652 297.304C149.943 297.304 186.981 326.405 176.399 331.696Z" fill="#E5E5E5"/>
<path d="M62.6392 310.532C35.1253 314.765 12.3734 326.405 4.4367 331.696C-3.50001 331.696 4.4367 342.278 7.08227 342.278C9.19872 342.278 55.5844 335.224 78.5126 331.696C84.6856 322.878 90.1531 306.299 62.6392 310.532Z" stroke="#817070" stroke-width="0.5"/>
<path d="M176.399 331.696C167.933 335.929 127.015 329.932 107.614 326.405C118.196 316.705 140.419 297.304 144.652 297.304C149.943 297.304 186.981 326.405 176.399 331.696Z" stroke="#817070" stroke-width="0.5"/>
<path d="M78.5128 64.4937C70.047 64.4937 69.6943 94.4768 70.5761 109.468L89.095 104.177L94.3861 77.7215C97.0317 78.6034 102.323 78.7797 102.323 72.4304C102.323 64.4937 89.0951 64.4937 78.5128 64.4937Z" fill="#D3AC88"/>
<path d="M327.196 331.696C295.449 333.813 291.04 321.996 292.804 315.823C299.859 312.295 313.439 306.299 311.323 310.532C309.206 314.765 315.732 319.35 319.26 321.114C322.787 321.996 331.958 323.23 340.424 321.114C348.89 318.997 351.006 323.76 351.006 326.405C356.298 327.287 358.943 329.58 327.196 331.696Z" fill="#D3AC88"/>
<path d="M78.5128 64.4937C70.047 64.4937 69.6943 94.4768 70.5761 109.468L89.095 104.177L94.3861 77.7215C97.0317 78.6034 102.323 78.7797 102.323 72.4304C102.323 64.4937 89.0951 64.4937 78.5128 64.4937Z" stroke="#D3AC88" stroke-width="0.5"/>
<path d="M327.196 331.696C295.449 333.813 291.04 321.996 292.804 315.823C299.859 312.295 313.439 306.299 311.323 310.532C309.206 314.765 315.732 319.35 319.26 321.114C322.787 321.996 331.958 323.23 340.424 321.114C348.89 318.997 351.006 323.76 351.006 326.405C356.298 327.287 358.943 329.58 327.196 331.696Z" stroke="#D3AC88" stroke-width="0.5"/>
<path d="M198.138 121.502L206.075 100.337L224.594 105.628L248.404 150.603C257.223 147.957 274.86 140.55 274.86 132.084C274.86 121.502 258.986 100.337 274.86 105.628C290.733 110.919 301.315 100.337 296.024 95.0459C291.791 90.813 301.515 80.0589 296.024 73.8814C292.328 69.723 287.029 93.9877 282.796 68.5902C277.505 36.8434 266.923 39.4889 264.277 44.7801C261.632 50.0712 256.341 28.9067 248.404 13.0333C240.467 -2.84017 214.012 -0.194597 214.012 5.09654C214.012 10.3877 198.138 10.3877 190.201 13.0333C182.265 15.6788 174.328 31.5522 176.974 39.4889C179.09 45.8383 183.147 52.7168 184.91 55.3624C184.029 60.6535 181.207 71.7649 176.974 73.8814C171.683 76.5269 174.328 89.7548 174.328 95.0459C174.328 99.2788 179.619 100.337 182.265 100.337L176.974 121.502H198.138Z" fill="black" stroke="black"/>
<path d="M202.075 97.6915V118.856L194.138 140.021L210.012 163.831L244.404 145.312L233.822 118.856L228.531 102.983L225.885 87.1092L202.075 97.6915Z" fill="#D3AC88" stroke="#D3AC88"/>
<path d="M216.657 28.9067C214.541 35.2561 217.539 42.1345 221.948 47.4256C227.24 54.7243 235.176 52.7168 240.467 52.7168C245.758 52.7168 245.758 60.2242 245.758 68.5902C245.758 71.2358 240.467 78.2906 235.176 79.1725C237.822 84.4636 232.001 95.575 219.303 97.6915C203.429 100.337 195.493 100.337 190.201 89.7548C184.91 79.1725 190.202 58.0079 187.556 52.7168C184.911 47.4257 190.202 28.9067 192.847 23.6155C195.493 18.3244 219.303 20.97 216.657 28.9067Z" fill="#D3AC88" stroke="#D3AC88"/>
<g filter="url(#filter0_d_591_1374)">
<path d="M206.075 79.1725C208.721 81.8181 215.07 85.5219 219.303 79.1725" stroke="#B69272"/>
</g>
<g filter="url(#filter1_d_591_1374)">
<path d="M192.847 45.8695C198.8 40.8896 204.752 40.8896 206.736 45.8695C209.398 52.5507 198.8 65.789 200.784 70.7689C202.768 75.7488 208.72 73.2589 208.72 73.2589" stroke="#B69272"/>
</g>
<path d="M137.29 245.843L163.746 232.616V182.35C150.518 193.814 122.475 217.271 116.126 219.388C108.189 222.033 71.1509 232.616 71.1509 192.932C71.1509 161.185 67.6235 121.502 65.8597 105.628L97.6066 97.6915C100.875 125.474 106.718 179.454 105.874 188.912C109.948 179.182 139.235 123.591 155.809 118.856C174.328 113.565 190.202 108.274 198.138 110.919C206.075 113.565 203.429 129.438 206.075 134.729C208.191 138.962 228.121 140.902 235.176 140.021C240.467 132.966 252.637 118.856 258.986 118.856C266.923 118.856 285.442 126.793 290.733 169.122C296.024 211.451 309.252 272.299 311.898 285.527C314.014 296.109 318.071 309.337 319.834 314.628L290.733 319.919L266.923 224.679C264.277 214.097 253.695 174.413 253.695 169.122V208.805C253.695 221.504 241.349 247.607 235.176 259.071L198.138 237.907L155.809 264.362L137.29 245.843Z" fill="#EDD925"/>
<path d="M163.746 158.54V182.35M163.746 182.35V232.616L137.29 245.843L155.809 264.362L198.138 237.907L235.176 259.071C241.349 247.607 253.695 221.504 253.695 208.805C253.695 192.932 253.695 163.831 253.695 169.122C253.695 174.413 264.277 214.097 266.923 224.679C269.039 233.145 283.678 291.7 290.733 319.919L319.834 314.628C318.071 309.337 314.014 296.109 311.898 285.527C309.252 272.299 296.024 211.451 290.733 169.122C285.442 126.793 266.923 118.856 258.986 118.856C252.637 118.856 240.467 132.966 235.176 140.021C228.121 140.902 208.191 138.962 206.075 134.729C203.429 129.438 206.075 113.565 198.138 110.919C190.202 108.274 174.328 113.565 155.809 118.856C137.29 124.147 102.898 192.932 105.543 190.286C107.66 188.17 101.134 127.675 97.6066 97.6915L65.8597 105.628C67.6235 121.502 71.1509 161.185 71.1509 192.932C71.1509 232.616 108.189 222.033 116.126 219.388C122.475 217.271 150.518 193.814 163.746 182.35Z" stroke="#EDD925"/>
<path d="M2.36659 248.489C7.65741 277.59 42.05 291.7 57.9234 306.691L71.1522 335.793C96.726 326.974 147.874 310.924 147.874 317.274C147.874 325.21 232.531 370.185 240.467 306.691C248.404 243.198 227.241 232.615 206.076 227.324C189.145 223.091 157.574 245.843 147.874 253.78C140.819 248.489 112.952 230.499 68.5062 222.033C12.9493 211.451 -1.44869 227.504 2.36659 248.489Z" fill="black" stroke="black"/>
<g filter="url(#filter2_f_591_1374)">
<path d="M46.7659 225.873L110.26 276.139" stroke="#817070" stroke-opacity="0.5" stroke-width="2"/>
</g>
<g filter="url(#filter3_f_591_1374)">
<path d="M77.1976 304.406C106.437 285.153 166.944 247.45 175.058 250.661" stroke="#817070" stroke-opacity="0.5" stroke-width="2"/>
</g>
<path d="M120.842 411.063V419" stroke="white" stroke-width="0.5"/>
<circle cx="216.657" cy="50.0713" r="2.64557" fill="black"/>
<circle cx="200.784" cy="50.0712" r="2.64557" fill="black"/>
<path d="M115.551 35.3924C113.434 31.1595 94.3862 38.038 86.4495 43.3292L97.0317 101.532C106.732 100.65 119.255 98.357 123.487 96.2406C128.779 93.595 118.196 40.6836 115.551 35.3924Z" fill="#3C3636" stroke="black" stroke-width="0.5"/>
<defs>
<filter id="filter0_d_591_1374" x="202.721" y="76.819" width="19.9974" height="10.3593" filterUnits="userSpaceOnUse" color-interpolation-filters="sRGB">
<feFlood flood-opacity="0" result="BackgroundImageFix"/>
<feColorMatrix in="SourceAlpha" type="matrix" values="0 0 0 0 0 0 0 0 0 0 0 0 0 0 0 0 0 0 127 0" result="hardAlpha"/>
<feOffset dy="1"/>
<feGaussianBlur stdDeviation="1.5"/>
<feComposite in2="hardAlpha" operator="out"/>
<feColorMatrix type="matrix" values="0 0 0 0 0 0 0 0 0 0 0 0 0 0 0 0 0 0 0.25 0"/>
<feBlend mode="normal" in2="BackgroundImageFix" result="effect1_dropShadow_591_1374"/>
<feBlend mode="normal" in="SourceGraphic" in2="effect1_dropShadow_591_1374" result="shape"/>
</filter>
<filter id="filter1_d_591_1374" x="189.526" y="39.6345" width="22.3867" height="38.7468" filterUnits="userSpaceOnUse" color-interpolation-filters="sRGB">
<feFlood flood-opacity="0" result="BackgroundImageFix"/>
<feColorMatrix in="SourceAlpha" type="matrix" values="0 0 0 0 0 0 0 0 0 0 0 0 0 0 0 0 0 0 127 0" result="hardAlpha"/>
<feOffset dy="1"/>
<feGaussianBlur stdDeviation="1.5"/>
<feComposite in2="hardAlpha" operator="out"/>
<feColorMatrix type="matrix" values="0 0 0 0 0 0 0 0 0 0 0 0 0 0 0 0 0 0 0.25 0"/>
<feBlend mode="normal" in2="BackgroundImageFix" result="effect1_dropShadow_591_1374"/>
<feBlend mode="normal" in="SourceGraphic" in2="effect1_dropShadow_591_1374" result="shape"/>
</filter>
<filter id="filter2_f_591_1374" x="42.1452" y="221.089" width="72.735" height="59.8339" filterUnits="userSpaceOnUse" color-interpolation-filters="sRGB">
<feFlood flood-opacity="0" result="BackgroundImageFix"/>
<feBlend mode="normal" in="SourceGraphic" in2="BackgroundImageFix" result="shape"/>
<feGaussianBlur stdDeviation="2" result="effect1_foregroundBlur_591_1374"/>
</filter>
<filter id="filter3_f_591_1374" x="72.6476" y="245.468" width="106.779" height="63.7732" filterUnits="userSpaceOnUse" color-interpolation-filters="sRGB">
<feFlood flood-opacity="0" result="BackgroundImageFix"/>
<feBlend mode="normal" in="SourceGraphic" in2="BackgroundImageFix" result="shape"/>
<feGaussianBlur stdDeviation="2" result="effect1_foregroundBlur_591_1374"/>
</filter>
</defs>
</svg>
